<svg id="Layer_1" data-name="Layer 1" xmlns="http://www.w3.org/2000/svg" viewBox="0 0 74.61 57.71"><defs><style>.cls-1{fill:#0288d1}</style></defs><title>Accelerate</title><path class="cls-1" d="M87.11 134.71h-.19c-9.73-1.88-16.53-9.19-16.53-17.77 0-7 4.68-13.39 12-16.41a18.22 18.22 0 0 1 34.31-12.18l.47-.34a13.74 13.74 0 0 1 21.42 11.37 13.18 13.18 0 0 1-.18 2.18.5.5 0 0 1 0 .12l-.75 2.59c4.47 2.77 7.31 8.39 7.31 14.57 0 6.51-3.15 12.39-8 15a.93.93 0 0 1-.46.12l-29.19.49a1 1 0 0 1-.72-.29 1 1 0 0 1-.3-.71v-22.37l-8.78 8.64a1 1 0 0 1-1.4-1.42l10.5-10.3a1 1 0 0 1 1.7.71v23.68l2.38-.05 25.55-.42c4.11-2.31 6.75-7.42 6.75-13.11s-2.73-11-7-13.22a1 1 0 0 1-.49-1.16l.95-3.27a12.16 12.16 0 0 0 .14-1.81 11.73 11.73 0 0 0-18.28-9.72l-.41.29a9.83 9.83 0 0 0-.89.93 1 1 0 0 1-1.72-.36 16.22 16.22 0 1 0-30.75 10.28A1 1 0 0 1 84 102c-7 2.57-11.6 8.42-11.6 14.89 0 7.58 6.09 14.06 14.81 15.79l14.86-.25a1 1 0 0 1 1 1 1 1 0 0 1-1 1l-15 .25z" transform="translate(-70.39 -77)"/><path class="cls-1" d="M118.92 120.54a1 1 0 0 1-.7-.29l-11.43-11.42a1 1 0 0 1 1.42-1.42l11.42 11.43a1 1 0 0 1 0 1.41 1 1 0 0 1-.71.29z" transform="translate(-70.39 -77)"/></svg>