<svg id="Layer_1" data-name="Layer 1" xmlns="http://www.w3.org/2000/svg" viewBox="0 0 43.5 29.89"><defs><style>.cls-1{fill:#0071e5}</style></defs><title>Architechture</title><path class="cls-1" d="M126.55 116.18a.5.5 0 0 1-.5-.5V92.11a.5.5 0 0 0-.5-.5H90.24a.5.5 0 0 0-.5.5v23.57a.5.5 0 0 1-1 0V92.11a1.5 1.5 0 0 1 1.5-1.5h35.31a1.5 1.5 0 0 1 1.5 1.5v23.57a.5.5 0 0 1-.5.5z" transform="translate(-86 -90.61)"/><path class="cls-1" d="M127.42 120.5H88.08a.51.51 0 0 1-.42-.22L86.09 118a.49.49 0 0 1-.09-.28v-2a.5.5 0 0 1 .5-.5H129a.5.5 0 0 1 .5.5v2a.49.49 0 0 1-.09.28l-1.57 2.32a.51.51 0 0 1-.42.18zm-39.08-1h38.82l1.34-2v-1.34H87v1.34zm25.47-22.24H92.48a.5.5 0 0 1-.5-.5v-3.24a.5.5 0 0 1 .5-.5h21.33a.5.5 0 0 1 .5.5v3.24a.5.5 0 0 1-.5.5zm-20.81-1h20.33V94H93zm20.81 4.07H97.87a.5.5 0 0 1 0-1h15.94a.5.5 0 0 1 0 1zm0 2.9h-13.28a.5.5 0 0 1-.5-.5.5.5 0 0 1 .5-.5h13.28a.5.5 0 0 1 .5.5.5.5 0 0 1-.5.5zm0 2.66H103.6a.5.5 0 0 1 0-1h10.21a.5.5 0 0 1 0 1zm-5.15 7.8H92.48a.5.5 0 0 1-.5-.5V98.92a.5.5 0 0 1 .29-.46.51.51 0 0 1 .54.08L109 112.82a.49.49 0 0 1-.33.87zm-15.68-1h14.36L93 100z" transform="translate(-86 -90.61)"/><path class="cls-1" d="M101.52 111H94.8a.5.5 0 0 1-.5-.5v-5.64a.49.49 0 0 1 .29-.45.47.47 0 0 1 .53.07l6.73 5.64a.5.5 0 0 1 .14.56.5.5 0 0 1-.47.32zm-6.22-1h4.85l-4.85-4.07zm23.7-8.34a2.33 2.33 0 1 1 2.32-2.33 2.33 2.33 0 0 1-2.32 2.33zm0-3.66a1.33 1.33 0 1 0 1.32 1.33A1.33 1.33 0 0 0 119 98zm-3.82 14a1.87 1.87 0 1 1 1.87-1.87 1.87 1.87 0 0 1-1.87 1.87zm0-2.74a.87.87 0 1 0 .87.87.87.87 0 0 0-.87-.84zm7.55 2.74a1.87 1.87 0 1 1 1.87-1.87 1.87 1.87 0 0 1-1.87 1.87zm0-2.74a.87.87 0 1 0 .87.87.87.87 0 0 0-.87-.84z" transform="translate(-86 -90.61)"/><path class="cls-1" d="M119 98a.5.5 0 0 1-.5-.5v-1.16a.5.5 0 0 1 .5-.5.51.51 0 0 1 .5.5v1.16a.5.5 0 0 1-.5.5zm-4.78 15.28a.46.46 0 0 1-.19 0 .51.51 0 0 1-.27-.65s.23-.55.49-1.3a.51.51 0 0 1 .64-.31.5.5 0 0 1 .31.63c-.28.79-.51 1.36-.51 1.36a.51.51 0 0 1-.47.27zm1.36-3.93a.44.44 0 0 1-.16 0 .51.51 0 0 1-.31-.64c.87-2.51 2-5.67 2.74-7.79a.51.51 0 0 1 .64-.3.5.5 0 0 1 .3.64c-.76 2.11-1.87 5.28-2.74 7.78a.5.5 0 0 1-.47.31zm8.05 4.01a.5.5 0 0 1-.47-.34l-.48-1.39a.5.5 0 1 1 .95-.33l.48 1.4a.5.5 0 0 1-.31.63.51.51 0 0 1-.17.03zm-1.38-4.01a.5.5 0 0 1-.47-.33l-.78-2.24c-.68-2-1.39-4-1.93-5.54a.5.5 0 0 1 .3-.64.51.51 0 0 1 .64.3c.54 1.51 1.26 3.58 1.94 5.56l.77 2.23a.51.51 0 0 1-.31.64.44.44 0 0 1-.16.02z" transform="translate(-86 -90.61)"/></svg>