<svg id="Layer_1" data-name="Layer 1" xmlns="http://www.w3.org/2000/svg" viewBox="0 0 144.76 89.42"><defs><style>.cls-1{fill:none;stroke:#0370b8;stroke-miterlimit:10}</style></defs><title>Cloud</title><path class="cls-1" d="M168.21 94.2a3.39 3.39 0 0 1-1.87-3.52 38.56 38.56 0 0 0-1.1-10C162 63.29 147.1 50.14 129.17 50.14a36.54 36.54 0 0 0-31.43 18.11 41.77 41.77 0 0 0-3.48 6.17A2.31 2.31 0 0 1 91.32 76c-12.74-1.73-22.63 2.84-29.52 13.7C61 91 60 90.94 58.89 91A23.55 23.55 0 0 0 46 133.7a25.22 25.22 0 0 0 10.78 4.3c.39.07.84.06 1 .58h101.5c1.38-.45 2.77-.87 4.13-1.36 9.22-3.37 15.09-9.78 16.28-19.58 1.2-10.08-2.81-18.06-11.48-23.44z" transform="translate(-35.62 -49.64)"/></svg>