<svg id="Layer_1" data-name="Layer 1" xmlns="http://www.w3.org/2000/svg" viewBox="0 0 44 31.22"><defs><style>.cls-1{fill:#0288d1}</style></defs><title>Extent of knowledge</title><path class="cls-1" d="M108.64 118.52l-2.53-3H91.73v-26h14.45l2.45 2.48 2.21-2.52h14.43v26h-14zm-15.91-4h13.85l2.08 2.49 2.18-2.49h13.43v-24h-13l-2.63 3-2.9-3h-13z" transform="translate(-86.5 -89.5)"/><path class="cls-1" d="M44 31.22H0V5.23h5.76v1H1v23.99h42V6.24l-4.57.14-.03-1 5.6-.17v26.01z"/><path class="cls-1" d="M103.33 96.46h-7.68v-3h7.68zm-6.68-1h5.68v-1h-5.68zM110 109h-3V95.75h3zm-2-1h1V96.75h-1zm-4.67-6.31h-7.68v-3h7.68zm-6.68-1h5.68v-1h-5.68zm6.68 6.23h-7.68v-3h7.68zm-6.68-1h5.68v-1h-5.68zm6.68 5.64h-7.68v-3h7.68zm-6.68-1h5.68v-1h-5.68zm24.41-14.1h-7.68v-3h7.68zm-6.68-1h5.68v-1h-5.68zm6.68 6.23h-7.68v-3h7.68zm-6.68-1h5.68v-1h-5.68zm6.68 6.23h-7.68v-3h7.68zm-6.68-1h5.68v-1h-5.68zm6.68 5.64h-7.68v-3h7.68zm-6.68-1h5.68v-1h-5.68z" transform="translate(-86.5 -89.5)"/></svg>