<svg id="Layer_1" data-name="Layer 1" xmlns="http://www.w3.org/2000/svg" viewBox="0 0 55.07 63.83"><defs><style>.cls-1{fill:#0288d1}</style></defs><title>Secure</title><path class="cls-1" d="M86.32 138.24a5.92 5.92 0 0 1-4.14-1.65 5.66 5.66 0 0 1-1.64-4.12V97.73a5.36 5.36 0 0 1 5.68-5.61h3.22C90 84.8 93.58 79.47 100 76.29a18.43 18.43 0 0 1 17.24.53 18.66 18.66 0 0 1 9.44 14.7c0 .21 0 .43.06.59h3.63a5.27 5.27 0 0 1 5.22 5.3v35.44a5.27 5.27 0 0 1-5.4 5.33H86.38zm1.87-44.13h-1.94a3.4 3.4 0 0 0-3.69 3.61v34.74a3.68 3.68 0 0 0 1 2.7 3.93 3.93 0 0 0 2.78 1.07h43.81a3.24 3.24 0 0 0 3.4-3.33V97.47a3.25 3.25 0 0 0-3.28-3.31h-2.93c-2.09 0-2.51-.39-2.68-2.43a16.68 16.68 0 0 0-8.44-13.13 16.19 16.19 0 0 0-15.36-.47c-5.8 2.86-9 7.68-9.46 14.34a1.6 1.6 0 0 1-1.83 1.7c-.44-.06-.91-.06-1.38-.06z" transform="translate(-80.54 -74.41)"/><path class="cls-1" d="M97.33 94.13a1.77 1.77 0 0 1-1.33-.47 1.85 1.85 0 0 1-.4-1.42 12.51 12.51 0 0 1 24.9-.67v.16c.07.85.12 1.43-.32 1.91s-1 .48-1.78.48H97.33zM108 82.62h-.32a10.51 10.51 0 0 0-10 9.51h20.92v-.17l1-.26-1 .11a10.45 10.45 0 0 0-10.6-9.19zm-2.87 44.23a1.58 1.58 0 0 1-1.22-.48 1.77 1.77 0 0 1-.32-1.52c.24-1.5.47-3 .7-4.5s.47-3.09.73-4.63a5.7 5.7 0 0 1 3.08-10.51 5.7 5.7 0 0 1 3.1 10.49c.28 1.67.54 3.34.8 5q.32 2.1.66 4.2a1.67 1.67 0 0 1-.3 1.42 1.62 1.62 0 0 1-1.32.46h-5.62zm1.28-2h4.17c-.2-1.25-.39-2.5-.59-3.75-.26-1.66-.52-3.33-.79-5a1.87 1.87 0 0 1 .91-2 3.62 3.62 0 0 0 1.55-4.2 3.67 3.67 0 0 0-3.55-2.62 3.71 3.71 0 0 0-2 6.85 1.78 1.78 0 0 1 .86 2c-.25 1.53-.49 3.07-.72 4.6s-.43 2.79-.65 4.18zm4.75-9.17z" transform="translate(-80.54 -74.41)"/></svg>