<svg id="Layer_1" data-name="Layer 1" xmlns="http://www.w3.org/2000/svg" viewBox="0 0 48 33"><defs><style>.cls-1{fill:#0071e5}</style></defs><title>Training</title><path class="cls-1" d="M99.24 112.6a4.65 4.65 0 1 1 4.65-4.65 4.65 4.65 0 0 1-4.65 4.65zm0-8.3a3.65 3.65 0 1 0 3.65 3.65 3.65 3.65 0 0 0-3.65-3.65zm6.58 17.14H92.56a.5.5 0 0 1-.5-.5 7.13 7.13 0 0 1 14.26 0 .5.5 0 0 1-.5.5zm-12.74-1h12.22a6.13 6.13 0 0 0-12.22 0z" transform="translate(-84.5 -88.5)"/><path class="cls-1" d="M109.15 121.5a.5.5 0 0 1-.46-.29.51.51 0 0 1 .1-.56l12.95-13.55a.5.5 0 1 1 .72.69l-12.09 12.66 2.58-.12h10.66a7.9 7.9 0 0 0 7.89-7.9v-15a7.9 7.9 0 0 0-7.89-7.89H93.39a7.9 7.9 0 0 0-7.89 7.89v15a7.94 7.94 0 0 0 5.12 7.39.5.5 0 1 1-.35.94 9 9 0 0 1-5.77-8.33v-15a8.9 8.9 0 0 1 8.89-8.89h30.22a8.9 8.9 0 0 1 8.89 8.89v15a8.9 8.9 0 0 1-8.89 8.9H113l-3.81.17z" transform="translate(-84.5 -88.5)"/></svg>