<svg id="Layer_1" data-name="Layer 1" xmlns="http://www.w3.org/2000/svg" viewBox="0 0 59.45 60.5"><defs><style>.cls-1{fill:#0288d1;}</style></defs><title>Availability</title><path class="cls-1" d="M108.75,136a30.25,30.25,0,1,1,23.81-48.92A1,1,0,0,1,131,88.32a28.24,28.24,0,1,0,5,24.94,1,1,0,1,1,1.93.53A30.32,30.32,0,0,1,108.75,136Z" transform="translate(-78.5 -75.5)"/><path class="cls-1" d="M121.42,112.51H105.76a1,1,0,0,1-1-1V95.85a1,1,0,0,1,2,0v14.66h14.66a1,1,0,0,1,0,2Z" transform="translate(-78.5 -75.5)"/><path class="cls-1" d="M131.78,88.79h-9.21a1,1,0,0,1,0-2h8.21V78.57a1,1,0,0,1,2,0v9.22A1,1,0,0,1,131.78,88.79Z" transform="translate(-78.5 -75.5)"/></svg>