<svg id="Layer_1" data-name="Layer 1" xmlns="http://www.w3.org/2000/svg" viewBox="0 0 144.76 89.42"><defs><style>.cls-1{fill:none;stroke:#0370b8;stroke-miterlimit:10;}</style></defs><title>Cloud</title><path class="cls-1" d="M168.21,94.2a3.39,3.39,0,0,1-1.87-3.52,38.56,38.56,0,0,0-1.1-10C162,63.29,147.1,50.14,129.17,50.14A36.54,36.54,0,0,0,97.74,68.25a41.77,41.77,0,0,0-3.48,6.17A2.31,2.31,0,0,1,91.32,76C78.58,74.27,68.69,78.84,61.8,89.7,61,91,60,90.94,58.89,91A23.55,23.55,0,0,0,46,133.7,25.22,25.22,0,0,0,56.78,138c.39.07.84.06,1,.58h101.5c1.38-.45,2.77-.87,4.13-1.36,9.22-3.37,15.09-9.78,16.28-19.58C180.89,107.56,176.88,99.58,168.21,94.2Z" transform="translate(-35.62 -49.64)"/></svg>