<svg id="Layer_1" data-name="Layer 1" xmlns="http://www.w3.org/2000/svg" viewBox="0 0 51.49 51.65"><defs><style>.cls-1{fill:#0071e5;}</style></defs><title>Devops</title><path class="cls-1" d="M99.12,113.4a16.87,16.87,0,1,1,16.53-20.26.76.76,0,0,1-.59.89.75.75,0,0,1-.88-.59A15.37,15.37,0,1,0,99.12,111.9a15.25,15.25,0,0,0,5.32-.94.74.74,0,0,1,1,.45.76.76,0,0,1-.45,1A16.92,16.92,0,0,1,99.12,113.4Z" transform="translate(-82.26 -79.67)"/><path class="cls-1" d="M116.88,131.33a16.93,16.93,0,0,1-16.52-13.47A.74.74,0,0,1,101,117a.74.74,0,0,1,.88.58,15.37,15.37,0,1,0,15-18.46,15.24,15.24,0,0,0-5.31.94.75.75,0,1,1-.51-1.41,16.68,16.68,0,0,1,5.82-1,16.87,16.87,0,1,1,0,33.73Z" transform="translate(-82.26 -79.67)"/><path class="cls-1" d="M102.75,115.82a.68.68,0,0,1-.36-.1.75.75,0,0,1-.29-1l1.54-2.72-2.72-1.53a.74.74,0,0,1-.28-1,.75.75,0,0,1,1-.29l3.37,1.91a.75.75,0,0,1,.35.45.71.71,0,0,1-.07.57l-1.9,3.37A.76.76,0,0,1,102.75,115.82Z" transform="translate(-82.26 -79.67)"/><path class="cls-1" d="M114.59,102a.68.68,0,0,1-.36-.1l-3.38-1.9a.74.74,0,0,1-.35-.46.76.76,0,0,1,.07-.57l1.91-3.37a.75.75,0,0,1,1-.28.74.74,0,0,1,.28,1l-1.53,2.72L115,100.6a.75.75,0,0,1-.37,1.41Z" transform="translate(-82.26 -79.67)"/><path class="cls-1" d="M99,97.37a4.53,4.53,0,1,1,4.53-4.53A4.53,4.53,0,0,1,99,97.37Zm0-7.56a3,3,0,1,0,3,3A3,3,0,0,0,99,89.81Z" transform="translate(-82.26 -79.67)"/><path class="cls-1" d="M105,105.43H93a.75.75,0,0,1-.75-.75,6.79,6.79,0,1,1,13.58,0A.75.75,0,0,1,105,105.43Zm-11.28-1.5h10.48a5.29,5.29,0,0,0-10.48,0Z" transform="translate(-82.26 -79.67)"/><path class="cls-1" d="M117.13,115a4.53,4.53,0,1,1,4.53-4.53A4.53,4.53,0,0,1,117.13,115Zm0-7.56a3,3,0,1,0,3,3A3,3,0,0,0,117.13,107.4Z" transform="translate(-82.26 -79.67)"/><path class="cls-1" d="M123.13,123H111.05a.74.74,0,0,1-.75-.75,6.79,6.79,0,0,1,13.58,0A.74.74,0,0,1,123.13,123Zm-11.28-1.5h10.48a5.29,5.29,0,0,0-10.48,0Z" transform="translate(-82.26 -79.67)"/></svg>