<svg id="Layer_1" data-name="Layer 1" xmlns="http://www.w3.org/2000/svg" viewBox="0 0 47.9 48.11"><defs><style>.cls-1{fill:#0288d1;}</style></defs><title>Untitled-1</title><path class="cls-1" d="M99,129.5a17,17,0,0,1-2.24-.16.81.81,0,0,1-.68-.56c-.31-.78-.64-1.61-1-2.42a1.3,1.3,0,0,0-1.71-.68q-1.22.5-2.4,1a.77.77,0,0,1-.84-.1,15.36,15.36,0,0,1-3.32-3.27.81.81,0,0,1-.08-.87l.11-.26c.32-.73.65-1.47.91-2.22a1.28,1.28,0,0,0-.75-1.62c-.73-.31-1.48-.6-2.22-.88l-.22-.09a.75.75,0,0,1-.51-.61,14.74,14.74,0,0,1,0-4.74.76.76,0,0,1,.52-.63l.28-.11c.73-.29,1.46-.58,2.18-.9a1.29,1.29,0,0,0,.68-1.65c-.31-.81-.67-1.61-1-2.44a.79.79,0,0,1,.08-.87,15.83,15.83,0,0,1,3.27-3.32.8.8,0,0,1,.84-.09c.8.35,1.62.71,2.45,1a1.28,1.28,0,0,0,1.67-.74c.35-.81.66-1.62,1-2.44a.76.76,0,0,1,.62-.51,15.4,15.4,0,0,1,4.75,0,.74.74,0,0,1,.6.5c.31.79.63,1.58,1,2.36a1.33,1.33,0,0,0,1.85.76c.78-.33,1.56-.67,2.33-1a.76.76,0,0,1,.81.09,15.66,15.66,0,0,1,3.35,3.3.79.79,0,0,1,.07.84l-.09.22c-.32.73-.63,1.45-.91,2.19a1.32,1.32,0,0,0,.77,1.73c.8.33,1.6.64,2.41.94a.74.74,0,0,1,.5.64,15.17,15.17,0,0,1,0,4.62.86.86,0,0,1-.59.74c-.84.33-1.66.65-2.44,1a1.27,1.27,0,0,0-.65,1.61c.28.74.61,1.48.93,2.2l.11.24a.79.79,0,0,1-.06.87,15.43,15.43,0,0,1-3.31,3.34l-.13.1a.58.58,0,0,1-.57,0s-.07,0-.07,0l-.72-.31-1.72-.71a1.29,1.29,0,0,0-1.72.71c-.34.78-.64,1.57-.94,2.36a.84.84,0,0,1-.67.61A15.13,15.13,0,0,1,99,129.5Zm-2-1.14a14.68,14.68,0,0,0,4.19,0c.32-.85.62-1.63,1-2.4a2.27,2.27,0,0,1,3-1.24c.59.23,1.18.48,1.76.73l.59.25a14.53,14.53,0,0,0,2.94-3l-.09-.2c-.33-.73-.66-1.49-1-2.26a2.29,2.29,0,0,1,1.16-2.87c.81-.37,1.63-.7,2.48-1a14.29,14.29,0,0,0,0-4.19c-.78-.29-1.55-.6-2.32-.92a2.31,2.31,0,0,1-1.33-3c.29-.76.61-1.5.93-2.24l.07-.15a14.38,14.38,0,0,0-3-2.94c-.74.34-1.49.67-2.25,1a2.3,2.3,0,0,1-3.15-1.29c-.32-.75-.62-1.51-.93-2.28a14.31,14.31,0,0,0-4.19,0c-.3.79-.6,1.59-.93,2.37a2.3,2.3,0,0,1-3,1.29c-.83-.32-1.64-.67-2.42-1a14.27,14.27,0,0,0-2.93,3c.37.83.72,1.62,1,2.43a2.29,2.29,0,0,1-1.21,2.92c-.73.33-1.48.62-2.22.92l-.2.08a14,14,0,0,0,0,4.19l.13,0c.75.29,1.51.58,2.25.9a2.28,2.28,0,0,1,1.31,2.88c-.28.78-.62,1.54-.94,2.28l-.09.21a14.27,14.27,0,0,0,3,2.93c.77-.35,1.56-.7,2.35-1a2.3,2.3,0,0,1,3,1.2C96.31,126.76,96.64,127.58,96.94,128.36Zm2-5.51h0a8.51,8.51,0,0,1-6-14.53,8.39,8.39,0,0,1,6-2.49h0a8.51,8.51,0,1,1,0,17Zm0-16a7.51,7.51,0,0,0,0,15h0a7.51,7.51,0,0,0,0-15h0Z" transform="translate(-83.8 -81.38)"/><path class="cls-1" d="M116,117.14a.78.78,0,0,1-.51-.17.93.93,0,0,1-.2-1,.58.58,0,0,0,0-.18,16.09,16.09,0,0,0,0-2,.76.76,0,0,1,.7-.88A13.72,13.72,0,1,0,100.33,96.7a.75.75,0,0,0,0,.21,1.07,1.07,0,0,1-.39.9,1.24,1.24,0,0,1-.87.13h-.22a13,13,0,0,0-2,.13.77.77,0,0,1-.7-.15.78.78,0,0,1-.18-.7,17,17,0,0,1,2.32-6.91,17.56,17.56,0,0,1,13.81-8.82,17.82,17.82,0,0,1,19.28,14.61,19,19,0,0,1,.29,3.25h0A18,18,0,0,1,116.64,117l-.18,0A2.38,2.38,0,0,1,116,117.14Zm.38-3.33c0,.66,0,1.32,0,2a2.07,2.07,0,0,1,0,.22l.24-.06A17,17,0,0,0,130.7,99.35a18,18,0,0,0-.28-3.09,16.82,16.82,0,0,0-18.19-13.79,16.63,16.63,0,0,0-13.06,8.35A16,16,0,0,0,97,97a16.23,16.23,0,0,1,1.79-.1l.31,0h.17a.45.45,0,0,0,0-.11c0-.12,0-.24,0-.35a14.71,14.71,0,1,1,17,17.31Z" transform="translate(-83.8 -81.38)"/><path class="cls-1" d="M114.24,103.42h0a3.92,3.92,0,0,1-3.92-2.65,3.83,3.83,0,0,1,5.91-4.27.33.33,0,0,0,.28.08L123,96a1.33,1.33,0,0,1,.63,2.59q-3,1.26-6,2.49a.31.31,0,0,0-.19.18,3.68,3.68,0,0,1-3.17,2.21ZM114,96.75a2.77,2.77,0,0,0-1.64.53,2.83,2.83,0,0,0-1,3.19,3,3,0,0,0,3,2,2.66,2.66,0,0,0,2.3-1.65,1.28,1.28,0,0,1,.71-.66l6-2.49c.4-.17.35-.36.34-.43s-.07-.29-.5-.25l-6.45.64a1.34,1.34,0,0,1-1-.28A2.79,2.79,0,0,0,114,96.75Z" transform="translate(-83.8 -81.38)"/></svg>