<svg id="Layer_1" data-name="Layer 1" xmlns="http://www.w3.org/2000/svg" viewBox="0 0 44 31.22"><defs><style>.cls-1{fill:#0288d1;}</style></defs><title>Extent of knowledge</title><path class="cls-1" d="M108.64,118.52l-2.53-3H91.73v-26h14.45L108.63,92l2.21-2.52h14.43v26h-14Zm-15.91-4h13.85l2.08,2.49,2.18-2.49h13.43v-24h-13l-2.63,3-2.9-3h-13Z" transform="translate(-86.5 -89.5)"/><polygon class="cls-1" points="44 31.22 0 31.22 0 5.23 5.76 5.23 5.76 6.23 1 6.23 1 30.22 43 30.22 43 6.24 38.43 6.38 38.4 5.38 44 5.21 44 31.22"/><path class="cls-1" d="M103.33,96.46H95.65v-3h7.68Zm-6.68-1h5.68v-1H96.65Z" transform="translate(-86.5 -89.5)"/><path class="cls-1" d="M110,109h-3V95.75h3Zm-2-1h1V96.75h-1Z" transform="translate(-86.5 -89.5)"/><path class="cls-1" d="M103.33,101.69H95.65v-3h7.68Zm-6.68-1h5.68v-1H96.65Z" transform="translate(-86.5 -89.5)"/><path class="cls-1" d="M103.33,106.92H95.65v-3h7.68Zm-6.68-1h5.68v-1H96.65Z" transform="translate(-86.5 -89.5)"/><path class="cls-1" d="M103.33,111.56H95.65v-3h7.68Zm-6.68-1h5.68v-1H96.65Z" transform="translate(-86.5 -89.5)"/><path class="cls-1" d="M121.06,96.46h-7.68v-3h7.68Zm-6.68-1h5.68v-1h-5.68Z" transform="translate(-86.5 -89.5)"/><path class="cls-1" d="M121.06,101.69h-7.68v-3h7.68Zm-6.68-1h5.68v-1h-5.68Z" transform="translate(-86.5 -89.5)"/><path class="cls-1" d="M121.06,106.92h-7.68v-3h7.68Zm-6.68-1h5.68v-1h-5.68Z" transform="translate(-86.5 -89.5)"/><path class="cls-1" d="M121.06,111.56h-7.68v-3h7.68Zm-6.68-1h5.68v-1h-5.68Z" transform="translate(-86.5 -89.5)"/></svg>