<svg id="Layer_1" data-name="Layer 1" xmlns="http://www.w3.org/2000/svg" viewBox="0 0 39.5 37.16"><defs><style>.cls-1{fill:#0071e5;}</style></defs><title>Governance</title><path class="cls-1" d="M127,124.16a.46.46,0,0,1-.33-.13l-10.73-9.55a16.23,16.23,0,1,1,4.53-11.24,15.56,15.56,0,0,1-.2,2.55.5.5,0,0,1-.49.42h-1.63L103.26,106a.5.5,0,0,1-.49-.5.49.49,0,0,1,.5-.5l16.08.17a16.15,16.15,0,0,0,.12-2,15.23,15.23,0,1,0-3.93,10.21.5.5,0,0,1,.7,0l11.09,9.87a.5.5,0,0,1-.33.88Z" transform="translate(-88 -87)"/><path class="cls-1" d="M97.56,99.81a2.54,2.54,0,1,1,2.54-2.53A2.53,2.53,0,0,1,97.56,99.81Zm0-4.07a1.54,1.54,0,1,0,1.54,1.54A1.54,1.54,0,0,0,97.56,95.74Z" transform="translate(-88 -87)"/><path class="cls-1" d="M101.89,107.45a1.88,1.88,0,1,1,1.88-1.87A1.87,1.87,0,0,1,101.89,107.45Zm0-2.75a.88.88,0,1,0,.88.88A.88.88,0,0,0,101.89,104.7Z" transform="translate(-88 -87)"/><path class="cls-1" d="M101.89,115a1.88,1.88,0,1,1,1.88-1.87A1.87,1.87,0,0,1,101.89,115Zm0-2.75a.88.88,0,1,0,.88.88A.87.87,0,0,0,101.89,112.24Z" transform="translate(-88 -87)"/><path class="cls-1" d="M112.33,113.56h-9.06a.5.5,0,0,1-.5-.5.5.5,0,0,1,.5-.5h8.56v-3a.51.51,0,0,1,.5-.5.5.5,0,0,1,.5.5v3.46A.5.5,0,0,1,112.33,113.56Z" transform="translate(-88 -87)"/><path class="cls-1" d="M108.77,106.11a.5.5,0,0,1-.5-.5V97.78H99.6a.51.51,0,0,1-.5-.5.5.5,0,0,1,.5-.5h9.17a.5.5,0,0,1,.5.5v8.33A.51.51,0,0,1,108.77,106.11Z" transform="translate(-88 -87)"/></svg>