<svg id="Layer_1" data-name="Layer 1" xmlns="http://www.w3.org/2000/svg" viewBox="0 0 43.6 43.32"><defs><style>.cls-1{fill:#0288d1;}</style></defs><title>Low costs</title><path class="cls-1" d="M107.94,115.44l-.38,0h-.33a2.42,2.42,0,0,1-2-.61,2,2,0,0,1-.24-1.69,1.41,1.41,0,0,0-.11-1.09,1.78,1.78,0,0,0-1.27-.48,6.19,6.19,0,0,1-1.44-.35,8.14,8.14,0,0,0-1-.28,2.39,2.39,0,0,1-1.71-1,2.58,2.58,0,0,1-.16-2.11l0-.11c.36-1.42.53-2.14,1.12-2.46s1.29-.09,2.7.37l.39.13a7.49,7.49,0,0,0,4.06.57c1.21-.28,1.81-.58,2-1.49s-.24-1.61-1.36-2.13c-1.8-.85-3.31-1.57-4.8-2.34-3-1.53-4.36-3.79-4.13-6.7a6.7,6.7,0,0,1,5-6.13c.85-.28,1-.62.87-1.43a2.5,2.5,0,0,1,.57-2.3,2.22,2.22,0,0,1,2-.31,2.28,2.28,0,0,1,2,.41,2,2,0,0,1,.39,1.84,1.23,1.23,0,0,0,.11.92,1.41,1.41,0,0,0,1,.4,4.34,4.34,0,0,1,1,.27,3.56,3.56,0,0,0,.68.22,2.64,2.64,0,0,1,1.9,1,2.72,2.72,0,0,1,0,2.24c-.34,1.16-.7,2-1.42,2.25a2.76,2.76,0,0,1-2.34-.43,5.43,5.43,0,0,0-3.93-.33c-.82.21-1.24.58-1.35,1.19a1.34,1.34,0,0,0,.87,1.48c.89.46,1.79.89,2.69,1.31s1.63.77,2.43,1.19c3.55,1.82,5,4.63,4.15,8.36a6.57,6.57,0,0,1-4.59,5.09c-1.25.42-1.62,1-1.4,2.21a2,2,0,0,1-.32,1.77A2.17,2.17,0,0,1,107.94,115.44Zm-6.8-9.32a.33.33,0,0,0-.15,0,4.68,4.68,0,0,0-.63,1.82l0,.11a1.71,1.71,0,0,0,0,1.33,1.5,1.5,0,0,0,1,.52,7.79,7.79,0,0,1,1.13.31,5.83,5.83,0,0,0,1.21.31,2.6,2.6,0,0,1,2,.87,2.29,2.29,0,0,1,.29,1.88,1.24,1.24,0,0,0,0,.88c.16.2.69.22,1.2.23l.35,0c.69,0,1.1,0,1.26-.22a1.28,1.28,0,0,0,.08-.94,2.66,2.66,0,0,1,2.08-3.33,5.62,5.62,0,0,0,3.92-4.35c.71-3.32-.44-5.63-3.62-7.26-.8-.41-1.6-.79-2.41-1.17s-1.83-.87-2.72-1.33a2.33,2.33,0,0,1-1.39-2.55,2.5,2.5,0,0,1,2.08-2,6.48,6.48,0,0,1,4.65.41c.71.38,1.21.51,1.49.4s.62-.87.84-1.62a2,2,0,0,0,.07-1.42c-.15-.24-.54-.4-1.21-.52a4.64,4.64,0,0,1-.87-.26,3.47,3.47,0,0,0-.75-.22,2.26,2.26,0,0,1-1.63-.8,2.08,2.08,0,0,1-.29-1.68c0-.33.08-.77-.12-1s-.63-.23-1.26-.12a.45.45,0,0,1-.2,0c-.41-.1-1-.18-1.22.06s-.32.7-.24,1.43a2,2,0,0,1-1.54,2.5,5.77,5.77,0,0,0-4.29,5.26c-.19,2.51,1,4.38,3.59,5.73,1.49.77,3,1.48,4.77,2.32,1.54.72,2.17,1.77,1.93,3.21-.29,1.73-1.82,2.08-2.73,2.29a8.28,8.28,0,0,1-4.59-.59l-.32-.11A8.52,8.52,0,0,0,101.14,106.12Z" transform="translate(-85.9 -83.41)"/><path class="cls-1" d="M108.37,126.73a.51.51,0,0,1-.37-.16l-22-24a.5.5,0,0,1-.09-.54.5.5,0,0,1,.46-.29h7.49l.17-15.06a.51.51,0,0,1,.5-.49h0a.49.49,0,0,1,.49.51l-.17,15.54a.51.51,0,0,1-.5.5H87.54l20.81,22.71,19.56-22.71H122a.5.5,0,0,1-.5-.5V86.72a.5.5,0,0,1,1,0v15H129a.48.48,0,0,1,.45.29.47.47,0,0,1-.07.53l-20.64,24a.47.47,0,0,1-.37.18Z" transform="translate(-85.9 -83.41)"/></svg>