<svg id="Layer_1" data-name="Layer 1" xmlns="http://www.w3.org/2000/svg" viewBox="0 0 48 48"><defs><style>.cls-1{fill:#0071e5;}</style></defs><title>Optimisation</title><path class="cls-1" d="M108.5,129.48h-4a1.35,1.35,0,0,1-1.5-1.31l0-.08v-.25l-.13-.88c-.18-1.18-.35-2.37-.55-3.54a.39.39,0,0,0-.12-.14l-.86-.37q-.44-.16-.87-.36s-.08,0-.14,0l-3.41,2.54-.37.28a1.39,1.39,0,0,1-2.15-.17l-5.57-5.56a1.39,1.39,0,0,1-.14-2.15l.45-.61q1.19-1.61,2.37-3.18l.47-.35-.45.23a7.11,7.11,0,0,1-.61-1.46c-.07-.32-.17-.42-.67-.49-1.07-.13-2.13-.29-3.2-.45L85.85,111a1.39,1.39,0,0,1-1.35-1.58v-8a1.36,1.36,0,0,1,1.33-1.54l.51-.08c1.4-.21,2.81-.43,4.21-.62l.12,0a18.56,18.56,0,0,1,.75-1.82c0-.09,0-.11,0-.18-.8-1-1.58-2.11-2.37-3.17l-.42-.58a1.4,1.4,0,0,1,.16-2.19l.88-.87Q92,88,94.34,85.71a3.48,3.48,0,0,1,.56-.41l.23-.15.25-.18.54.29a3.25,3.25,0,0,1,.52.31c1.27.93,2.54,1.86,3.8,2.81a.24.24,0,0,0,.08.06l.1,0c.28-.13.57-.25.86-.36s.55-.22.82-.35a.37.37,0,0,0,.13-.15c.19-1.14.36-2.3.54-3.46L103,82.8a1.35,1.35,0,0,1,1.55-1.31h8A1.36,1.36,0,0,1,114,82.84l.2,1.29c.17,1.14.34,2.28.53,3.42a.47.47,0,0,0,.12.13c.28.13.56.24.84.35s.6.24.9.38c0,0,.06,0,.13,0l3.49-2.6.3-.22a1.37,1.37,0,0,1,2.11.15q2.81,2.79,5.6,5.6a1.37,1.37,0,0,1,.16,2.11l-.18.25q-1.29,1.76-2.61,3.5a.57.57,0,0,0-.09.15.24.24,0,0,0,0,.1,8.78,8.78,0,0,1,.41,1c.1.25.2.51.32.75a.24.24,0,0,0,.11.09l3.17.49,1.63.24a1.35,1.35,0,0,1,1.28,1.48v8.13a1.36,1.36,0,0,1-1.29,1.47l-1.12.17c-1.22.18-2.44.37-3.66.54a.15.15,0,0,0-.14.12c-.25.68-.48,1.23-.72,1.74l-.39.44.4-.31c.78,1,1.55,2.07,2.32,3.11l.5.68a1.4,1.4,0,0,1-.15,2.15l-5.56,5.57a1.39,1.39,0,0,1-2.15.15l-.26-.18-3.53-2.63-.09-.06-.16.09a5.89,5.89,0,0,1-1.34.55c-.32.07-.42.17-.49.66-.13,1.07-.29,2.13-.45,3.19l-.18,1.18a1.34,1.34,0,0,1-1.5,1.3Zm-4.59-1.71,0,.26c.06.42.14.45.51.45h8.08a.73.73,0,0,0,.34,0c0-.79,0-2.88.08-4.91s.08-4.18.08-4.57v-1.17c0-1,0-2,0-3.07a1.29,1.29,0,0,1,.66-1.22,9.51,9.51,0,0,0,4.36-8.46,9.37,9.37,0,0,0-5-7.92.82.82,0,0,0-.55-.07.85.85,0,0,0-.14.42c0,2.2,0,4.5,0,7a1.28,1.28,0,0,1-.73,1.25c-.8.45-1.61.94-2.5,1.5a1.11,1.11,0,0,1-1.29,0c-.85-.53-1.71-1-2.59-1.55a1.16,1.16,0,0,1-.63-1.09c0-1.93,0-3.86,0-5.79V97.55c0-.36-.09-.54-.16-.59s-.27,0-.59.14a9.55,9.55,0,0,0-.59,16.38,1.34,1.34,0,0,1,.67,1.26C104,116.87,103.92,125,103.91,127.77ZM95.44,86.14h0a2.68,2.68,0,0,0-.38.28q-2.35,2.34-4.7,4.69l-.87.87c-.42.42-.42.42-.07.89l.43.57c.78,1.06,1.56,2.12,2.35,3.17a1.06,1.06,0,0,1,.13,1.21,16.78,16.78,0,0,0-.67,1.64,1.08,1.08,0,0,1-1,.77c-1.4.19-2.8.4-4.2.62l-.51.08c-.44.07-.48.11-.48.55v8c0,.47,0,.52.5.59l1.11.17c1.06.16,2.12.32,3.18.45a1.56,1.56,0,0,1,1.51,1.25,5.09,5.09,0,0,0,.49,1.15,1.07,1.07,0,0,1-.07,1.27c-.8,1-1.58,2.1-2.36,3.16l-.46.62c-.34.46-.32.47,0,.84L95,124.52c.39.39.41.39.85.07l.38-.28c1.14-.84,2.27-1.69,3.4-2.54a1,1,0,0,1,1.17-.13,8.16,8.16,0,0,0,.81.34c.31.13.63.26.93.4a1.47,1.47,0,0,1,.38.3c0-3.17,0-6.66,0-8,0-.23,0-.28-.22-.41a10.54,10.54,0,0,1,.66-18.09,1.37,1.37,0,0,1,2.23,1.32v1.24c0,1.93,0,3.86,0,5.79,0,.15,0,.16.13.22.88.51,1.76,1,2.62,1.57.12.08.12.08.23,0,.9-.57,1.73-1.06,2.54-1.52.19-.11.22-.16.22-.37,0-2.53,0-4.83,0-7a1.55,1.55,0,0,1,.69-1.3,1.72,1.72,0,0,1,1.47.08,10.37,10.37,0,0,1,5.51,8.76,10.51,10.51,0,0,1-4.81,9.34c-.2.13-.22.18-.21.36,0,1,0,2.06,0,3.09V119c0,.35,0,2-.07,3.84a1.49,1.49,0,0,1,1-.62,4.61,4.61,0,0,0,1.1-.46l.13-.06a1,1,0,0,1,1.18.12l3.52,2.62.26.19c.45.33.46.33.85-.06l5.56-5.56c.38-.39.39-.41.06-.85l-.51-.68c-.76-1-1.53-2.07-2.3-3.1a1,1,0,0,1-.12-1.17c.23-.49.44-1,.68-1.65a1.05,1.05,0,0,1,.94-.77c1.22-.17,2.43-.36,3.65-.54l1.12-.17c.38-.06.44-.15.44-.48v-8.13c0-.37-.06-.43-.43-.49l-1.62-.24-3.21-.49a1.27,1.27,0,0,1-.84-.65c-.12-.26-.23-.54-.34-.81a9.28,9.28,0,0,0-.37-.86,1.14,1.14,0,0,1,.15-1.32c.87-1.15,1.73-2.32,2.6-3.49l.18-.25c.31-.41.3-.43-.07-.81L122,86.42c-.35-.36-.37-.38-.81,0l-.29.22-3.49,2.59a1,1,0,0,1-1.17.13c-.27-.13-.55-.24-.83-.35s-.61-.24-.9-.38a1.32,1.32,0,0,1-.68-.87c-.19-1.14-.36-2.29-.53-3.43L113.06,83c-.07-.47-.11-.5-.58-.5h-8c-.46,0-.5.05-.56.46l-.19,1.28c-.18,1.17-.35,2.33-.55,3.49a1.3,1.3,0,0,1-.68.87c-.28.14-.58.26-.88.38s-.54.21-.8.33a1.07,1.07,0,0,1-1.22-.12q-1.87-1.41-3.78-2.81a3.39,3.39,0,0,0-.39-.22Z" transform="translate(-84.5 -81.48)"/></svg>