<svg id="Layer_1" data-name="Layer 1" xmlns="http://www.w3.org/2000/svg" viewBox="0 0 54.5 54.5"><defs><style>.cls-1{fill:#0288d1;}</style></defs><title>Quality</title><path class="cls-1" d="M126,133H90a9.3,9.3,0,0,1-9.29-9.29V87.79A9.3,9.3,0,0,1,90,78.5H126a9.31,9.31,0,0,1,5.94,2.16,1,1,0,1,1-1.28,1.54A7.25,7.25,0,0,0,126,80.5H90a7.3,7.3,0,0,0-7.29,7.29v35.92A7.3,7.3,0,0,0,90,131H126a7.3,7.3,0,0,0,7.29-7.29v-37l-25.68,25.68a1,1,0,0,1-1.42,0L94.68,100.86a1,1,0,0,1,1.41-1.41l10.77,10.77,26.68-26.68a1,1,0,0,1,1.09-.22,1,1,0,0,1,.62.92v39.47A9.3,9.3,0,0,1,126,133Z" transform="translate(-80.75 -78.5)"/></svg>