<svg id="Layer_1" data-name="Layer 1" xmlns="http://www.w3.org/2000/svg" viewBox="0 0 39.56 44.42"><defs><style>.cls-1{fill:#0071e5;}</style></defs><title>Security</title><path class="cls-1" d="M103.67,127.5a.83.83,0,0,1-.49-.17l-3-2c-2.07-1.36-4.2-2.77-6.25-4.23a24.09,24.09,0,0,1-10-19.67q0-7.31,0-14.62a.83.83,0,0,1,.9-1,81.32,81.32,0,0,0,8.56-.56,37.65,37.65,0,0,0,9-1.94,3.37,3.37,0,0,1,2.66,0A30.82,30.82,0,0,0,111.62,85a80.72,80.72,0,0,0,11.1.88.81.81,0,0,1,.55.21.76.76,0,0,1,.18.56V97.08c0,1.5,0,3,0,4.49a23.93,23.93,0,0,1-7,17,29.67,29.67,0,0,1-5,3.94c-2.41,1.59-4.8,3.2-7.2,4.81A.91.91,0,0,1,103.67,127.5ZM84.9,86.86q0,7.29,0,14.57a23,23,0,0,0,.38,4.3,22.58,22.58,0,0,0,9.22,14.55c2,1.46,4.16,2.86,6.22,4.22l3,2c2.4-1.61,4.77-3.2,7.15-4.78a29.35,29.35,0,0,0,4.89-3.8,23,23,0,0,0,6.73-16.32c0-1.49,0-3,0-4.48V86.86a80.71,80.71,0,0,1-11-.89,31.6,31.6,0,0,1-6.82-1.68,2.36,2.36,0,0,0-1.93,0,38.78,38.78,0,0,1-9.23,2A84.7,84.7,0,0,1,84.9,86.86ZM123,86.54l-.5,0a.43.43,0,0,0,0,.11Z" transform="translate(-83.9 -83.09)"/><path class="cls-1" d="M95.51,114a2.37,2.37,0,0,1-1.64-.65,2.23,2.23,0,0,1-.65-1.64v-13a2.15,2.15,0,0,1,2.26-2.23h.31c.26,0,.52,0,.78,0a6.91,6.91,0,0,1,4-5.92,7,7,0,0,1,6.57.2,7.11,7.11,0,0,1,3.61,5.61s0,.08,0,.11a.48.48,0,0,1,.12,0h.34c.26,0,.53,0,.79,0a2.11,2.11,0,0,1,2.08,2.12q0,6.65,0,13.28A2.11,2.11,0,0,1,112,114H95.51Zm.69-16.55h-.72a1.14,1.14,0,0,0-1.26,1.23v13a1.28,1.28,0,0,0,.35.93,1.32,1.32,0,0,0,1,.36H112a1.1,1.1,0,0,0,1.15-1.13q0-6.64,0-13.28A1.1,1.1,0,0,0,112,97.48c-.25,0-.5,0-.75,0h-.35c-.84,0-1.06-.2-1.13-1a6.1,6.1,0,0,0-3.1-4.82,5.94,5.94,0,0,0-5.64-.18,6,6,0,0,0-3.48,5.28.71.71,0,0,1-.81.75Z" transform="translate(-83.9 -83.09)"/><path class="cls-1" d="M99.63,97.48a.7.7,0,0,1-.76-.84,4.81,4.81,0,0,1,9.58-.26c0,.4.06.66-.14.88a.92.92,0,0,1-.76.22H99.63Zm7.92-.5h0Zm-3.91-3.81h-.12a3.81,3.81,0,0,0-3.63,3.31h7.57A3.81,3.81,0,0,0,103.64,93.17Z" transform="translate(-83.9 -83.09)"/><path class="cls-1" d="M102.56,109.75a.73.73,0,0,1-.55-.22.79.79,0,0,1-.15-.68c.09-.56.18-1.12.26-1.68s.17-1.11.26-1.66a2.26,2.26,0,0,1,1.29-4.12h0a2.26,2.26,0,0,1,1.28,4.12c.1.62.2,1.22.29,1.82l.25,1.57a.68.68,0,0,1-.74.85h-1.41c-.24,0-.46,0-.69,0Zm.48-1h1.42l-.2-1.26c-.1-.62-.19-1.25-.3-1.87a.82.82,0,0,1,.4-.89,1.26,1.26,0,0,0-.68-2.33h0a1.27,1.27,0,0,0-.67,2.34.79.79,0,0,1,.38.86l-.27,1.73c-.07.47-.14,1-.22,1.42Z" transform="translate(-83.9 -83.09)"/></svg>