<svg id="Layer_1" data-name="Layer 1" xmlns="http://www.w3.org/2000/svg" viewBox="0 0 31.69 50.5"><defs><style>.cls-1{fill:#0071e5;}</style></defs><title>Strategy</title><path class="cls-1" d="M107.84,130.5a.5.5,0,0,1-.5-.5v-4a.5.5,0,0,1,.5-.5h5.37v-2.21h-11.5a.5.5,0,0,1-.5-.5v-1.86a.5.5,0,0,1,.5-.5h11.5v-1.94l-11.38-.13a.5.5,0,0,1-.49-.5v-2.14c0-.58-.16-2.82-.26-3.38a16.34,16.34,0,0,0-1.29-3.6c-.26-.53-.8-1.37-1.28-2.11-.33-.51-.64-1-.84-1.33l-.29-.49A20.43,20.43,0,0,1,96,102.29a15.23,15.23,0,0,1-.83-3.91.5.5,0,0,1,.5-.5h24a.5.5,0,0,1,.5.5,15.23,15.23,0,0,1-.83,3.91,19.38,19.38,0,0,1-1.36,2.53l-.28.48c-.2.35-.51.82-.83,1.33-.48.74-1,1.58-1.29,2.11a16.34,16.34,0,0,0-1.29,3.6c0,.29-.13,1.11-.19,2a.52.52,0,0,1-.54.47.5.5,0,0,1-.46-.54c0-.71.13-1.69.21-2.09a17.35,17.35,0,0,1,1.37-3.87c.29-.58.83-1.41,1.35-2.22.31-.48.61-.94.8-1.28l.29-.49a18.89,18.89,0,0,0,1.28-2.37,16.54,16.54,0,0,0,.74-3.06h-23a15.81,15.81,0,0,0,.73,3.06,20.23,20.23,0,0,0,1.27,2.36l.3.5c.19.34.49.8.8,1.28.52.81,1.06,1.64,1.35,2.22a17.35,17.35,0,0,1,1.37,3.87,32.42,32.42,0,0,1,.28,3.57v1.62l11.38.13a.51.51,0,0,1,.49.5v2.94a.5.5,0,0,1-.5.5h-11.5v.86h11.5a.5.5,0,0,1,.5.5V126a.5.5,0,0,1-.5.5h-5.37V130A.5.5,0,0,1,107.84,130.5Z" transform="translate(-92 -80)"/><path class="cls-1" d="M114.67,98.88a.5.5,0,0,1-.5-.5V93.76a6.54,6.54,0,0,0-6.33-4.49A6.47,6.47,0,0,0,101.45,94v4.38a.5.5,0,0,1-.5.5.5.5,0,0,1-.5-.5V93.94a.5.5,0,0,1,0-.12,7.46,7.46,0,0,1,7.37-5.55,7.54,7.54,0,0,1,7.31,5.27.78.78,0,0,1,0,.14v4.7A.5.5,0,0,1,114.67,98.88Z" transform="translate(-92 -80)"/><path class="cls-1" d="M123.19,98.88H119.4a.5.5,0,0,1,0-1h3.29v-3l-3,0a.49.49,0,0,1-.49-.44,10.8,10.8,0,0,0-1.11-3.73.51.51,0,0,1,.18-.65l2.67-1.68a14.4,14.4,0,0,0-3.63-4.15l-2.17,2.27a.5.5,0,0,1-.65.06,11.5,11.5,0,0,0-4-1.77.49.49,0,0,1-.38-.55l.36-3a16.08,16.08,0,0,0-5.18,0l.75,2.85a.55.55,0,0,1-.06.4.48.48,0,0,1-.33.22,11.44,11.44,0,0,0-4.37,1.85.5.5,0,0,1-.65-.06L98.41,84.2a14.31,14.31,0,0,0-3.74,4.36L97.42,90a.5.5,0,0,1,.21.67,10.79,10.79,0,0,0-1.1,3.76.5.5,0,0,1-.5.45H93v3h2.7a.5.5,0,0,1,0,1H92.5a.5.5,0,0,1-.5-.5v-4a.49.49,0,0,1,.15-.36.58.58,0,0,1,.35-.14h3.09a11.68,11.68,0,0,1,.94-3.22l-2.77-1.46a.49.49,0,0,1-.21-.66,15.33,15.33,0,0,1,4.62-5.42.49.49,0,0,1,.66.06L101,85.47a12.38,12.38,0,0,1,3.88-1.66L104.14,81a.51.51,0,0,1,.39-.62,17,17,0,0,1,6.55,0,.51.51,0,0,1,.4.55l-.37,3a12.2,12.2,0,0,1,3.56,1.57l2.19-2.28a.49.49,0,0,1,.66-.06,15.23,15.23,0,0,1,4.25,4.73l.24.38a.49.49,0,0,1,.06.37.52.52,0,0,1-.22.32l-2.71,1.7a11.77,11.77,0,0,1,1,3.23l3.1,0a.5.5,0,0,1,.5.5v4A.5.5,0,0,1,123.19,98.88Z" transform="translate(-92 -80)"/></svg>